<?xml version="1.0" encoding="utf-8"?>
<!-- Generator: Adobe Illustrator 15.0.2, SVG Export Plug-In . SVG Version: 6.00 Build 0)  -->
<!DOCTYPE svg PUBLIC "-//W3C//DTD SVG 1.1//EN" "http://www.w3.org/Graphics/SVG/1.1/DTD/svg11.dtd">
<svg version="1.1" id="Calque_1" xmlns="http://www.w3.org/2000/svg" xmlns:xlink="http://www.w3.org/1999/xlink" x="0px" y="0px"
	 width="32px" height="34px" viewBox="0 0 32 34" enable-background="new 0 0 32 34" xml:space="preserve">
<g>
	<path fill="#1DA9B6" d="M0,4c0-2.2,1.8-4,4-4h24c2.2,0,4,1.8,4,4v26c0,2.2-1.8,4-4,4H4c-2.2,0-4-1.8-4-4V4z"/>
</g>
<g opacity="0.36">
	<path fill="#FFFFFE" d="M1,5c0-2.2,1.8-4,4-4h22c2.2,0,4,1.8,4,4v24c0,2.2-1.8,4-4,4H5c-2.2,0-4-1.8-4-4V5z"/>
</g>
<g>
	<path fill="#E8C6B0" d="M2,5c0-2.2,1.8-3,4-3h20c2.2,0,4,0.8,4,3v23c0,2.2-0.8,4-3,4H5c-2.2,0-3-1.8-3-4V5z"/>
</g>
<g>
	<g>
		<path fill="#9595A4" d="M16.001,13.315l-7.038,5.369v5.246h14.071v-5.246L16.001,13.315L16.001,13.315z"/>
	</g>
	<g>
		<polygon fill="#9595A4" points="24.723,18.313 16.002,11.347 7.272,18.251 6.652,17.467 16.005,10.07 25.348,17.531 		"/>
	</g>
</g>
</svg>
