<?xml version="1.0" encoding="utf-8"?>
<!-- Generator: Adobe Illustrator 15.0.2, SVG Export Plug-In . SVG Version: 6.00 Build 0)  -->
<!DOCTYPE svg PUBLIC "-//W3C//DTD SVG 1.1//EN" "http://www.w3.org/Graphics/SVG/1.1/DTD/svg11.dtd">
<svg version="1.1" id="Calque_1" xmlns="http://www.w3.org/2000/svg" xmlns:xlink="http://www.w3.org/1999/xlink" x="0px" y="0px"
	 width="32px" height="34px" viewBox="0 0 32 34" enable-background="new 0 0 32 34" xml:space="preserve">
<g opacity="0.15">
	<path fill="#FFFFFE" d="M0,4c0-2.2,1.8-4,4-4h24c2.2,0,4,1.8,4,4v26c0,2.2-1.8,4-4,4H4c-2.2,0-4-1.8-4-4V4z"/>
</g>
<g>
	<path fill="#1DA9B6" d="M0,4c0-2.2,1.8-4,4-4h24c2.2,0,4,1.8,4,4v25c0,2.2-1.8,4-4,4H4c-2.2,0-4-1.8-4-4V4z"/>
</g>
<g opacity="0.94">
	<path fill="#FFFFFE" d="M1,5c0-2.2,1.8-4,4-4h22c2.2,0,4,1.8,4,4v23c0,2.2-1.8,4-4,4H5c-2.2,0-4-1.8-4-4V5z"/>
</g>
<g>
	<path fill="#D3117E" d="M1,5c0-2.2,1.8-3,4-3h22c2.2,0,4,0.8,4,3v23c0,2.2-1.8,4-4,4H5c-2.2,0-4-1.8-4-4V5z"/>
</g>
<g opacity="0.94">
	<path fill="#FFFFFE" d="M15.999,20.355c2.592,0,4.69-2.104,4.69-4.688s-2.1-4.689-4.69-4.689s-4.69,2.1-4.69,4.689
		C11.309,18.26,13.411,20.355,15.999,20.355z"/>
	<rect x="9.264" y="24.023" fill="#FFFFFE" width="13.472" height="1"/>
</g>
<g>
	<path fill="#5F5F77" d="M15.999,9.978c-2.591,0-4.69,2.1-4.69,4.689c0,2.593,2.102,4.688,4.69,4.688c2.592,0,4.69-2.104,4.69-4.688
		S18.591,9.978,15.999,9.978L15.999,9.978z"/>
	<path fill="#5F5F77" d="M18.83,19.967c-0.844,0.452-1.809,0.713-2.831,0.713c-1.022,0-1.985-0.26-2.83-0.713
		c-1.821,0.479-3.251,1.613-3.905,4.057h13.472C22.082,21.58,20.654,20.443,18.83,19.967L18.83,19.967z"/>
</g>
</svg>
