<?xml version="1.0" encoding="utf-8"?>
<!-- Generator: Adobe Illustrator 15.0.2, SVG Export Plug-In . SVG Version: 6.00 Build 0)  -->
<!DOCTYPE svg PUBLIC "-//W3C//DTD SVG 1.1//EN" "http://www.w3.org/Graphics/SVG/1.1/DTD/svg11.dtd">
<svg version="1.1" id="Calque_1" xmlns="http://www.w3.org/2000/svg" xmlns:xlink="http://www.w3.org/1999/xlink" x="0px" y="0px"
	 width="160px" height="34px" viewBox="-32 0 160 34" enable-background="new -32 0 160 34" xml:space="preserve">
<g opacity="0.15">
	<path fill="#FFFFFE" d="M0,4c0-2.2,1.8-4,4-4h24c2.2,0,4,1.8,4,4v26c0,2.199-1.8,4-4,4H4c-2.2,0-4-1.801-4-4V4z"/>
</g>
<g>
	<path fill="#1DA9B6" d="M0,4c0-2.2,1.8-4,4-4h24c2.2,0,4,1.8,4,4v25c0,2.199-1.8,4-4,4H4c-2.2,0-4-1.801-4-4V4z"/>
</g>
<g opacity="0.94">
	<path fill="#FFFFFE" d="M1,5c0-2.2,1.8-4,4-4h22c2.2,0,4,1.8,4,4v23c0,2.199-1.8,4-4,4H5c-2.2,0-4-1.801-4-4V5z"/>
</g>
<g>
	<path fill="#D3117E" d="M1,5c0-2.2,1.8-3,4-3h22c2.2,0,4,0.8,4,3v23c0,2.199-1.8,4-4,4H5c-2.2,0-4-1.801-4-4V5z"/>
</g>
<g opacity="0.94">
	<g>
		<path fill="#FFFFFE" d="M24.085,15.542L16,19.563l-8.085-4.021V24h16.17V15.542L24.085,15.542z"/>
		<path fill="#FFFFFE" d="M24.085,12H7.916v2.542L16,18.563l8.085-4.021V12L24.085,12z"/>
	</g>
</g>
<g>
	<g>
		<path fill="#5F5F77" d="M24.085,14.542L16,18.563l-8.085-4.021V23h16.17V14.542L24.085,14.542z"/>
		<path fill="#5F5F77" d="M24.085,11H7.916v2.25L16,17.269l8.085-4.019V11L24.085,11z"/>
	</g>
</g>
<g opacity="0.15">
	<path fill="#FFFFFE" d="M-32,4c0-2.2,1.8-4,4-4h24c2.2,0,4,1.8,4,4v26c0,2.199-1.8,4-4,4h-24c-2.2,0-4-1.801-4-4V4z"/>
</g>
<g>
	<path fill="#1DA9B6" d="M-32,4c0-2.2,1.8-4,4-4h24c2.2,0,4,1.8,4,4v25c0,2.199-1.8,4-4,4h-24c-2.2,0-4-1.801-4-4V4z"/>
</g>
<g opacity="0.94">
	<path fill="#FFFFFE" d="M-31,5c0-2.2,1.8-4,4-4h22c2.2,0,4,1.8,4,4v23c0,2.199-1.8,4-4,4h-22c-2.2,0-4-1.801-4-4V5z"/>
</g>
<g>
	<path fill="#D3117E" d="M-31,5c0-2.2,1.8-3,4-3h22c2.2,0,4,0.8,4,3v23c0,2.199-1.8,4-4,4h-22c-2.2,0-4-1.801-4-4V5z"/>
</g>
<g opacity="0.94">
	<g>
		<path fill="#FFFFFE" d="M-7.915,15.542L-16,19.563l-8.085-4.021V24h16.17V15.542L-7.915,15.542z"/>
		<path fill="#FFFFFE" d="M-7.915,12h-16.169v2.542L-16,18.563l8.085-4.021V12L-7.915,12z"/>
	</g>
</g>
<g>
	<g>
		<path fill="#5F5F77" d="M-7.915,14.542L-16,18.563l-8.085-4.021V23h16.17V14.542L-7.915,14.542z"/>
		<path fill="#5F5F77" d="M-7.915,11h-16.169v2.25L-16,17.269l8.085-4.019V11L-7.915,11z"/>
	</g>
</g>
<g>
	<g opacity="0.5">
		<path fill="#FFFFFE" d="M32,4c0-2.2,1.801-4,4-4h24c2.201,0,4,1.8,4,4v26c0,2.199-1.799,4-4,4H36c-2.199,0-4-1.801-4-4V4z"/>
	</g>
	<g opacity="0.5">
		<path fill="#1DA9B6" d="M32,4c0-2.2,1.801-4,4-4h24c2.201,0,4,1.8,4,4v25c0,2.199-1.799,4-4,4H36c-2.199,0-4-1.801-4-4V4z"/>
	</g>
	<g opacity="0.5">
		<path fill="#FFFFFE" d="M33,5c0-2.2,1.801-4,4-4h22c2.201,0,4,1.8,4,4v23c0,2.199-1.799,4-4,4H37c-2.199,0-4-1.801-4-4V5z"/>
	</g>
	<g opacity="0.5">
		<path fill="#D3117E" d="M33,5c0-2.2,1.801-3,4-3h22c2.201,0,4,0.8,4,3v23c0,2.199-1.799,4-4,4H37c-2.199,0-4-1.801-4-4V5z"/>
	</g>
	<g opacity="0.5">
		<g>
			<path fill="#FFFFFE" d="M56.086,15.542L48,19.563l-8.084-4.021V24h16.17V15.542L56.086,15.542z"/>
			<path fill="#FFFFFE" d="M56.086,12h-16.17v2.542L48,18.563l8.086-4.021V12L56.086,12z"/>
		</g>
	</g>
	<g opacity="0.5">
		<g>
			<path fill="#5F5F77" d="M56.086,14.542L48,18.563l-8.084-4.021V23h16.17V14.542L56.086,14.542z"/>
			<path fill="#5F5F77" d="M56.086,11h-16.17v2.25L48,17.269l8.086-4.019V11L56.086,11z"/>
		</g>
	</g>
</g>
<g>
	<g>
		<path fill="#1DA9B6" d="M64,4c0-2.2,1.8-4,4-4h24c2.2,0,4,1.8,4,4v26c0,2.199-1.8,4-4,4H68c-2.2,0-4-1.801-4-4V4z"/>
	</g>
	<g opacity="0.36">
		<path fill="#FFFFFE" d="M65,5c0-2.2,1.8-4,4-4h22c2.2,0,4,1.8,4,4v24c0,2.199-1.8,4-4,4H69c-2.2,0-4-1.801-4-4V5z"/>
	</g>
	<g>
		<path fill="#E8C6B0" d="M66,5c0-2.2,1.8-3,4-3h20c2.2,0,4,0.8,4,3v23c0,2.199-0.8,4-3,4H69c-2.2,0-3-1.801-3-4V5z"/>
	</g>
	<g>
		<g>
			<path fill="#9595A4" d="M88.085,14.542L80,18.563l-8.085-4.021V23h16.17V14.542L88.085,14.542z"/>
			<path fill="#9595A4" d="M88.085,11h-16.17v2.25L80,17.269l8.085-4.019V11L88.085,11z"/>
		</g>
	</g>
	<g>
		<path fill="#1DA9B6" d="M96,4c0-2.2,1.8-4,4-4h24c2.201,0,4,1.8,4,4v26c0,2.199-1.799,4-4,4h-24c-2.199,0-4-1.801-4-4V4z"/>
	</g>
	<g opacity="0.36">
		<path fill="#FFFFFE" d="M97,5c0-2.2,1.801-4,4-4h22c2.201,0,4,1.8,4,4v24c0,2.199-1.799,4-4,4h-22c-2.199,0-4-1.801-4-4V5z"/>
	</g>
	<g>
		<path fill="#E8C6B0" d="M98,5c0-2.2,1.801-3,4-3h20c2.201,0,4,0.8,4,3v23c0,2.199-0.799,4-3,4h-22c-2.199,0-3-1.801-3-4V5z"/>
	</g>
	<g>
		<g>
			<path fill="#9595A4" d="M120.086,14.542L112,18.563l-8.084-4.021V23h16.17V14.542L120.086,14.542z"/>
			<path fill="#9595A4" d="M120.086,11h-16.17v2.25L112,17.269l8.086-4.019V11L120.086,11z"/>
		</g>
	</g>
</g>
</svg>
