<?xml version="1.0" encoding="utf-8"?>
<!-- Generator: Adobe Illustrator 15.0.2, SVG Export Plug-In . SVG Version: 6.00 Build 0)  -->
<!DOCTYPE svg PUBLIC "-//W3C//DTD SVG 1.1//EN" "http://www.w3.org/Graphics/SVG/1.1/DTD/svg11.dtd">
<svg version="1.1" id="Calque_1" xmlns="http://www.w3.org/2000/svg" xmlns:xlink="http://www.w3.org/1999/xlink" x="0px" y="0px"
	 width="80px" height="24px" viewBox="0 0 80 24" enable-background="new 0 0 80 24" xml:space="preserve">
<path fill="#EEEBE8" d="M0,4v16c0,2.2,1.8,4,4,4h18.029h47.63c1.1,0,2.541-0.719,3.202-1.598l6.643-8.813
	c0.662-0.878,0.662-2.314-0.001-3.193l-6.642-8.802C72.2,0.718,70.759,0,69.659,0h-47.63H4C1.8,0,0,1.8,0,4z"/>
<g>
	<path fill="#2AEDFF" d="M4,22h18.029h49.63c0.603,0,1.305-0.221,1.928-0.561l-0.726,0.963C72.2,23.281,70.759,24,69.659,24h-47.63
		H4c-2.2,0-4-1.8-4-4v-2C0,20.2,1.8,22,4,22z"/>
</g>
</svg>
