<?xml version="1.0" encoding="utf-8"?>
<!-- Generator: Adobe Illustrator 15.0.2, SVG Export Plug-In . SVG Version: 6.00 Build 0)  -->
<!DOCTYPE svg PUBLIC "-//W3C//DTD SVG 1.1//EN" "http://www.w3.org/Graphics/SVG/1.1/DTD/svg11.dtd">
<svg version="1.1" id="Calque_1" xmlns="http://www.w3.org/2000/svg" xmlns:xlink="http://www.w3.org/1999/xlink" x="0px" y="0px"
	 width="80px" height="24px" viewBox="0 0 80 24" enable-background="new 0 0 80 24" xml:space="preserve">
<path fill="#EEEBE8" d="M76,0H57.971h-47.63C9.241,0,7.8,0.718,7.137,1.596l-6.64,8.802c-0.663,0.879-0.663,2.315-0.001,3.193
	l6.642,8.812C7.8,23.281,9.241,24,10.341,24h47.63H76c2.2,0,4-1.8,4-4V4C80,1.8,78.2,0,76,0z"/>
<g>
	<path fill="#2AEDFF" d="M76,22H57.971H8.341c-0.603,0-1.305-0.221-1.928-0.561l0.726,0.963C7.8,23.281,9.241,24,10.341,24h47.63H76
		c2.2,0,4-1.8,4-4v-2C80,20.2,78.2,22,76,22z"/>
</g>
</svg>
