<?xml version="1.0" encoding="utf-8"?>
<!-- Generator: Adobe Illustrator 15.0.2, SVG Export Plug-In . SVG Version: 6.00 Build 0)  -->
<!DOCTYPE svg PUBLIC "-//W3C//DTD SVG 1.1//EN" "http://www.w3.org/Graphics/SVG/1.1/DTD/svg11.dtd">
<svg version="1.1" id="Calque_1" xmlns="http://www.w3.org/2000/svg" xmlns:xlink="http://www.w3.org/1999/xlink" x="0px" y="0px"
	 width="32px" height="34px" viewBox="0 0 32 34" enable-background="new 0 0 32 34" xml:space="preserve">
<g>
	<g opacity="0.15">
		<path fill="#FFFFFE" d="M1,4c0-2.2,1.8-4,4-4h22c2.2,0,4,1.8,4,4v26c0,2.2-1.8,4-4,4H5c-2.2,0-4-1.8-4-4V4z"/>
	</g>
	<g>
		<path fill="#1DA9B6" d="M1,4c0-2.2,1.8-4,4-4h22c2.2,0,4,1.8,4,4v25c0,2.2-1.8,4-4,4H5c-2.2,0-4-1.8-4-4V4z"/>
	</g>
	<g opacity="0.94">
		<path fill="#FFFFFE" d="M2,5c0-2.2,1.8-4,4-4h20c2.2,0,4,1.8,4,4v23c0,2.2-1.8,4-4,4H6c-2.2,0-4-1.8-4-4V5z"/>
	</g>
	<g>
		<path fill="#D3117E" d="M2,5c0-2.2,1.8-3,4-3h20c2.2,0,4,0.8,4,3v23c0,2.2-1.8,4-4,4H6c-2.2,0-4-1.8-4-4V5z"/>
	</g>
</g>
</svg>
