<?xml version="1.0" encoding="utf-8"?>
<!-- Generator: Adobe Illustrator 15.0.2, SVG Export Plug-In . SVG Version: 6.00 Build 0)  -->
<!DOCTYPE svg PUBLIC "-//W3C//DTD SVG 1.1//EN" "http://www.w3.org/Graphics/SVG/1.1/DTD/svg11.dtd">
<svg version="1.1" id="Calque_1" xmlns="http://www.w3.org/2000/svg" xmlns:xlink="http://www.w3.org/1999/xlink" x="0px" y="0px"
	 width="32px" height="34px" viewBox="0 0 32 34" enable-background="new 0 0 32 34" xml:space="preserve">
<g>
	<path fill="#1DA9B6" d="M0,4c0-2.2,1.8-4,4-4h24c2.2,0,4,1.8,4,4v26c0,2.2-1.8,4-4,4H4c-2.2,0-4-1.8-4-4V4z"/>
</g>
<g opacity="0.36">
	<path fill="#FFFFFE" d="M1,5c0-2.2,1.8-4,4-4h22c2.2,0,4,1.8,4,4v24c0,2.2-1.8,4-4,4H5c-2.2,0-4-1.8-4-4V5z"/>
</g>
<g>
	<path fill="#E8C6B0" d="M2,5c0-2.2,1.8-3,4-3h20c2.2,0,4,0.8,4,3v23c0,2.2-0.8,4-3,4H5c-2.2,0-3-1.8-3-4V5z"/>
</g>
<g>
	<path fill="#9595A4" d="M15.999,9.978c-2.591,0-4.69,2.1-4.69,4.688c0,2.594,2.102,4.688,4.69,4.688c2.592,0,4.69-2.104,4.69-4.688
		S18.591,9.978,15.999,9.978L15.999,9.978z"/>
	<path fill="#9595A4" d="M18.83,19.966c-0.844,0.452-1.809,0.713-2.831,0.713c-1.022,0-1.985-0.26-2.83-0.713
		c-1.821,0.479-3.251,1.613-3.905,4.057h13.472C22.082,21.579,20.654,20.442,18.83,19.966L18.83,19.966z"/>
</g>
</svg>
