<?xml version="1.0" encoding="utf-8"?>
<!-- Generator: Adobe Illustrator 15.0.2, SVG Export Plug-In . SVG Version: 6.00 Build 0)  -->
<!DOCTYPE svg PUBLIC "-//W3C//DTD SVG 1.1//EN" "http://www.w3.org/Graphics/SVG/1.1/DTD/svg11.dtd">
<svg version="1.1" id="Calque_1" xmlns="http://www.w3.org/2000/svg" xmlns:xlink="http://www.w3.org/1999/xlink" x="0px" y="0px"
	 width="160px" height="34px" viewBox="0 0 160 34" enable-background="new 0 0 160 34" xml:space="preserve">
<g opacity="0.15">
	<path fill="#FFFFFE" d="M0,4c0-2.2,1.8-4,4-4h24c2.2,0,4,1.8,4,4v26c0,2.2-1.8,4-4,4H4c-2.2,0-4-1.8-4-4V4z"/>
</g>
<g>
	<path fill="#1DA9B6" d="M0,4c0-2.2,1.8-4,4-4h24c2.2,0,4,1.8,4,4v25c0,2.2-1.8,4-4,4H4c-2.2,0-4-1.8-4-4V4z"/>
</g>
<g opacity="0.94">
	<path fill="#FFFFFE" d="M1,5c0-2.2,1.8-4,4-4h22c2.2,0,4,1.8,4,4v23c0,2.2-1.8,4-4,4H5c-2.2,0-4-1.8-4-4V5z"/>
</g>
<g>
	<path fill="#D3117E" d="M1,5c0-2.2,1.8-3,4-3h22c2.2,0,4,0.8,4,3v23c0,2.2-1.8,4-4,4H5c-2.2,0-4-1.8-4-4V5z"/>
</g>
<g opacity="0.94">
	<g>
		<path fill="#FFFFFE" d="M16.001,14.315l-7.038,5.369v5.246h14.071v-5.246L16.001,14.315L16.001,14.315z"/>
	</g>
	<g>
		<polygon fill="#FFFFFE" points="24.22,18.913 16.002,12.349 7.7,18.915 7.273,18.323 16.004,11.071 24.722,18.383 		"/>
	</g>
</g>
<g>
	<g>
		<path fill="#5F5F77" d="M16.001,13.386l-7.038,5.369v5.246h14.071v-5.246L16.001,13.386L16.001,13.386z"/>
	</g>
	<g>
		<polygon fill="#5F5F77" points="24.722,18.383 16.002,11.418 7.273,18.323 6.652,17.539 16.004,10.142 25.347,17.602 		"/>
	</g>
</g>
<g opacity="0.15">
	<path fill="#FFFFFE" d="M32,4c0-2.2,1.8-4,4-4h24c2.2,0,4,1.8,4,4v26c0,2.2-1.8,4-4,4H36c-2.2,0-4-1.8-4-4V4z"/>
</g>
<g>
	<path fill="#1DA9B6" d="M32,4c0-2.2,1.8-4,4-4h24c2.2,0,4,1.8,4,4v25c0,2.2-1.8,4-4,4H36c-2.2,0-4-1.8-4-4V4z"/>
</g>
<g opacity="0.94">
	<path fill="#FFFFFE" d="M33,5c0-2.2,1.8-4,4-4h22c2.2,0,4,1.8,4,4v23c0,2.2-1.8,4-4,4H37c-2.2,0-4-1.8-4-4V5z"/>
</g>
<g>
	<path fill="#D3117E" d="M33,5c0-2.2,1.8-3,4-3h22c2.2,0,4,0.8,4,3v23c0,2.2-1.8,4-4,4H37c-2.2,0-4-1.8-4-4V5z"/>
</g>
<g opacity="0.94">
	<g>
		<path fill="#FFFFFE" d="M48.001,14.315l-7.038,5.369v5.246h14.071v-5.246L48.001,14.315L48.001,14.315z"/>
	</g>
	<g>
		<polygon fill="#FFFFFE" points="56.22,18.913 48.002,12.349 39.7,18.915 39.273,18.323 48.004,11.071 56.722,18.383 		"/>
	</g>
</g>
<g>
	<g>
		<path fill="#5F5F77" d="M48.001,13.386l-7.038,5.369v5.246h14.071v-5.246L48.001,13.386L48.001,13.386z"/>
	</g>
	<g>
		<polygon fill="#5F5F77" points="56.722,18.383 48.002,11.418 39.273,18.323 38.652,17.539 48.004,10.142 57.347,17.602 		"/>
	</g>
</g>
<g>
	<g opacity="0.5">
		<path fill="#FFFFFE" d="M64,4c0-2.2,1.799-4,4-4h24c2.199,0,4,1.8,4,4v26c0,2.2-1.801,4-4,4H68c-2.201,0-4-1.8-4-4V4z"/>
	</g>
	<g opacity="0.5">
		<path fill="#1DA9B6" d="M64,4c0-2.2,1.799-4,4-4h24c2.199,0,4,1.8,4,4v25c0,2.2-1.801,4-4,4H68c-2.201,0-4-1.8-4-4V4z"/>
	</g>
	<g opacity="0.5">
		<path fill="#FFFFFE" d="M65,5c0-2.2,1.799-4,4-4h22c2.199,0,4,1.8,4,4v23c0,2.2-1.801,4-4,4H69c-2.201,0-4-1.8-4-4V5z"/>
	</g>
	<g opacity="0.5">
		<path fill="#D3117E" d="M65,5c0-2.2,1.799-3,4-3h22c2.199,0,4,0.8,4,3v23c0,2.2-1.801,4-4,4H69c-2.201,0-4-1.8-4-4V5z"/>
	</g>
	<g opacity="0.5">
		<g>
			<path fill="#FFFFFE" d="M80,14.315l-7.037,5.369v5.246h14.07v-5.246L80,14.315L80,14.315z"/>
		</g>
		<g>
			<polygon fill="#FFFFFE" points="88.221,18.913 80.002,12.349 71.699,18.915 71.273,18.323 80.004,11.071 88.723,18.383 			"/>
		</g>
	</g>
	<g opacity="0.5">
		<g>
			<path fill="#5F5F77" d="M80,13.386l-7.037,5.369v5.246h14.07v-5.246L80,13.386L80,13.386z"/>
		</g>
		<g>
			<polygon fill="#5F5F77" points="88.723,18.383 80.002,11.418 71.273,18.323 70.652,17.539 80.004,10.142 89.348,17.602 			"/>
		</g>
	</g>
</g>
<g>
	<g>
		<path fill="#1DA9B6" d="M96,4c0-2.2,1.8-4,4-4h24c2.2,0,4,1.8,4,4v26c0,2.2-1.8,4-4,4h-24c-2.2,0-4-1.8-4-4V4z"/>
	</g>
	<g opacity="0.36">
		<path fill="#FFFFFE" d="M97,5c0-2.2,1.8-4,4-4h22c2.2,0,4,1.8,4,4v24c0,2.2-1.8,4-4,4h-22c-2.2,0-4-1.8-4-4V5z"/>
	</g>
	<g>
		<path fill="#E8C6B0" d="M98,5c0-2.2,1.8-3,4-3h20c2.2,0,4,0.8,4,3v23c0,2.2-0.8,4-3,4h-22c-2.2,0-3-1.8-3-4V5z"/>
	</g>
	<g>
		<g>
			<path fill="#9595A4" d="M112.001,13.315l-7.038,5.369v5.246h14.071v-5.246L112.001,13.315L112.001,13.315z"/>
		</g>
		<g>
			<polygon fill="#9595A4" points="120.722,18.313 112.002,11.348 103.272,18.251 102.651,17.467 112.005,10.07 121.347,17.532 			
				"/>
		</g>
	</g>
	<g>
		<path fill="#1DA9B6" d="M128,4c0-2.2,1.8-4,4-4h24c2.201,0,4,1.8,4,4v26c0,2.2-1.799,4-4,4h-24c-2.199,0-4-1.8-4-4V4z"/>
	</g>
	<g opacity="0.36">
		<path fill="#FFFFFE" d="M129,5c0-2.2,1.801-4,4-4h22c2.201,0,4,1.8,4,4v24c0,2.2-1.799,4-4,4h-22c-2.199,0-4-1.8-4-4V5z"/>
	</g>
	<g>
		<path fill="#E8C6B0" d="M130,5c0-2.2,1.801-3,4-3h20c2.201,0,4,0.8,4,3v23c0,2.2-0.799,4-3,4h-22c-2.199,0-3-1.8-3-4V5z"/>
	</g>
	<g>
		<g>
			<path fill="#9595A4" d="M144.002,13.315l-7.039,5.369v5.246h14.072v-5.246L144.002,13.315L144.002,13.315z"/>
		</g>
		<g>
			<polygon fill="#9595A4" points="152.723,18.313 144.002,11.348 135.271,18.251 134.652,17.467 144.006,10.07 153.348,17.532 			
				"/>
		</g>
	</g>
</g>
</svg>
