<?xml version="1.0" encoding="utf-8"?>
<!-- Generator: Adobe Illustrator 15.0.2, SVG Export Plug-In . SVG Version: 6.00 Build 0)  -->
<!DOCTYPE svg PUBLIC "-//W3C//DTD SVG 1.1//EN" "http://www.w3.org/Graphics/SVG/1.1/DTD/svg11.dtd">
<svg version="1.1" id="Calque_1" xmlns="http://www.w3.org/2000/svg" xmlns:xlink="http://www.w3.org/1999/xlink" x="0px" y="0px"
	 width="160px" height="34px" viewBox="0 0 160 34" enable-background="new 0 0 160 34" xml:space="preserve">
<g opacity="0.15">
	<path fill="#FFFFFE" d="M0,4c0-2.2,1.8-4,4-4h24c2.2,0,4,1.8,4,4v26c0,2.201-1.8,4-4,4H4c-2.2,0-4-1.799-4-4V4z"/>
</g>
<g>
	<path fill="#1DA9B6" d="M0,4c0-2.2,1.8-4,4-4h24c2.2,0,4,1.8,4,4v25c0,2.201-1.8,4-4,4H4c-2.2,0-4-1.799-4-4V4z"/>
</g>
<g opacity="0.94">
	<path fill="#FFFFFE" d="M1,5c0-2.2,1.8-4,4-4h22c2.2,0,4,1.8,4,4v23c0,2.201-1.8,4-4,4H5c-2.2,0-4-1.799-4-4V5z"/>
</g>
<g>
	<path fill="#D3117E" d="M1,5c0-2.2,1.8-3,4-3h22c2.2,0,4,0.8,4,3v23c0,2.201-1.8,4-4,4H5c-2.2,0-4-1.799-4-4V5z"/>
</g>
<g opacity="0.94">
	<path fill="#FFFFFE" d="M15.999,20.355c2.592,0,4.69-2.104,4.69-4.688s-2.101-4.689-4.69-4.689s-4.69,2.1-4.69,4.689
		C11.309,18.26,13.411,20.355,15.999,20.355z"/>
	<rect x="9.264" y="24.023" fill="#FFFFFE" width="13.472" height="1"/>
</g>
<g>
	<path fill="#5F5F77" d="M15.999,9.979c-2.591,0-4.69,2.1-4.69,4.689c0,2.593,2.102,4.688,4.69,4.688c2.592,0,4.69-2.104,4.69-4.688
		S18.591,9.979,15.999,9.979L15.999,9.979z"/>
	<path fill="#5F5F77" d="M18.83,19.967c-0.844,0.453-1.809,0.713-2.831,0.713s-1.985-0.26-2.83-0.713
		c-1.821,0.479-3.251,1.613-3.905,4.057h13.472C22.082,21.58,20.654,20.443,18.83,19.967L18.83,19.967z"/>
</g>
<g opacity="0.15">
	<path fill="#FFFFFE" d="M32,4c0-2.2,1.8-4,4-4h24c2.2,0,4,1.8,4,4v26c0,2.201-1.8,4-4,4H36c-2.2,0-4-1.799-4-4V4z"/>
</g>
<g>
	<path fill="#1DA9B6" d="M32,4c0-2.2,1.8-4,4-4h24c2.2,0,4,1.8,4,4v25c0,2.201-1.8,4-4,4H36c-2.2,0-4-1.799-4-4V4z"/>
</g>
<g opacity="0.94">
	<path fill="#FFFFFE" d="M33,5c0-2.2,1.8-4,4-4h22c2.2,0,4,1.8,4,4v23c0,2.201-1.8,4-4,4H37c-2.2,0-4-1.799-4-4V5z"/>
</g>
<g>
	<path fill="#D3117E" d="M33,5c0-2.2,1.8-3,4-3h22c2.2,0,4,0.8,4,3v23c0,2.201-1.8,4-4,4H37c-2.2,0-4-1.799-4-4V5z"/>
</g>
<g opacity="0.94">
	<path fill="#FFFFFE" d="M47.999,20.355c2.592,0,4.69-2.104,4.69-4.688s-2.101-4.689-4.69-4.689s-4.69,2.1-4.69,4.689
		C43.309,18.26,45.411,20.355,47.999,20.355z"/>
	<rect x="41.264" y="24.023" fill="#FFFFFE" width="13.472" height="1"/>
</g>
<g>
	<path fill="#5F5F77" d="M47.999,9.979c-2.591,0-4.69,2.1-4.69,4.689c0,2.593,2.102,4.688,4.69,4.688c2.592,0,4.69-2.104,4.69-4.688
		S50.591,9.979,47.999,9.979L47.999,9.979z"/>
	<path fill="#5F5F77" d="M50.83,19.967c-0.844,0.453-1.809,0.713-2.831,0.713s-1.985-0.26-2.83-0.713
		c-1.821,0.479-3.251,1.613-3.905,4.057h13.472C54.082,21.58,52.654,20.443,50.83,19.967L50.83,19.967z"/>
</g>
<g>
	<g opacity="0.5">
		<path fill="#FFFFFE" d="M64,4c0-2.2,1.799-4,4-4h24c2.199,0,4,1.8,4,4v26c0,2.201-1.801,4-4,4H68c-2.201,0-4-1.799-4-4V4z"/>
	</g>
	<g opacity="0.5">
		<path fill="#1DA9B6" d="M64,4c0-2.2,1.799-4,4-4h24c2.199,0,4,1.8,4,4v25c0,2.201-1.801,4-4,4H68c-2.201,0-4-1.799-4-4V4z"/>
	</g>
	<g opacity="0.5">
		<path fill="#FFFFFE" d="M65,5c0-2.2,1.799-4,4-4h22c2.199,0,4,1.8,4,4v23c0,2.201-1.801,4-4,4H69c-2.201,0-4-1.799-4-4V5z"/>
	</g>
	<g opacity="0.5">
		<path fill="#D3117E" d="M65,5c0-2.2,1.799-3,4-3h22c2.199,0,4,0.8,4,3v23c0,2.201-1.801,4-4,4H69c-2.201,0-4-1.799-4-4V5z"/>
	</g>
	<g opacity="0.5">
		<path fill="#FFFFFE" d="M79.998,20.355c2.592,0,4.691-2.104,4.691-4.688s-2.103-4.689-4.691-4.689s-4.689,2.1-4.689,4.689
			C75.309,18.26,77.41,20.355,79.998,20.355z"/>
		<rect x="73.264" y="24.023" fill="#FFFFFE" width="13.473" height="1"/>
	</g>
	<g opacity="0.5">
		<path fill="#5F5F77" d="M79.998,9.979c-2.59,0-4.689,2.1-4.689,4.689c0,2.593,2.103,4.688,4.689,4.688
			c2.592,0,4.691-2.104,4.691-4.688S82.59,9.979,79.998,9.979L79.998,9.979z"/>
		<path fill="#5F5F77" d="M82.83,19.967c-0.844,0.453-1.809,0.713-2.832,0.713c-1.021,0-1.984-0.26-2.83-0.713
			c-1.82,0.479-3.25,1.613-3.904,4.057h13.473C86.082,21.58,84.654,20.443,82.83,19.967L82.83,19.967z"/>
	</g>
</g>
<g>
	<g>
		<path fill="#1DA9B6" d="M96,4c0-2.2,1.8-4,4-4h24c2.2,0,4,1.8,4,4v26c0,2.201-1.8,4-4,4h-24c-2.2,0-4-1.799-4-4V4z"/>
	</g>
	<g opacity="0.36">
		<path fill="#FFFFFE" d="M97,5c0-2.2,1.8-4,4-4h22c2.2,0,4,1.8,4,4v24c0,2.201-1.8,4-4,4h-22c-2.2,0-4-1.799-4-4V5z"/>
	</g>
	<g>
		<path fill="#E8C6B0" d="M98,5c0-2.2,1.8-3,4-3h20c2.2,0,4,0.8,4,3v23c0,2.201-0.8,4-3,4h-22c-2.2,0-3-1.799-3-4V5z"/>
	</g>
	<g>
		<path fill="#9595A4" d="M111.999,9.979c-2.591,0-4.69,2.1-4.69,4.688c0,2.594,2.103,4.687,4.69,4.687
			c2.592,0,4.69-2.103,4.69-4.687S114.591,9.979,111.999,9.979L111.999,9.979z"/>
		<path fill="#9595A4" d="M114.83,19.967c-0.844,0.451-1.809,0.713-2.831,0.713s-1.985-0.26-2.83-0.713
			c-1.821,0.479-3.251,1.613-3.905,4.057h13.473C118.082,21.58,116.654,20.441,114.83,19.967L114.83,19.967z"/>
	</g>
	<g>
		<path fill="#1DA9B6" d="M128,4c0-2.2,1.8-4,4-4h24c2.2,0,4,1.8,4,4v26c0,2.201-1.8,4-4,4h-24c-2.2,0-4-1.799-4-4V4z"/>
	</g>
	<g opacity="0.36">
		<path fill="#FFFFFE" d="M129,5c0-2.2,1.8-4,4-4h22c2.2,0,4,1.8,4,4v24c0,2.201-1.8,4-4,4h-22c-2.2,0-4-1.799-4-4V5z"/>
	</g>
	<g>
		<path fill="#E8C6B0" d="M130,5c0-2.2,1.8-3,4-3h20c2.2,0,4,0.8,4,3v23c0,2.201-0.8,4-3,4h-22c-2.2,0-3-1.799-3-4V5z"/>
	</g>
	<g>
		<path fill="#9595A4" d="M143.999,9.979c-2.591,0-4.69,2.1-4.69,4.688c0,2.594,2.104,4.687,4.69,4.687
			c2.592,0,4.69-2.103,4.69-4.687S146.591,9.979,143.999,9.979L143.999,9.979z"/>
		<path fill="#9595A4" d="M146.83,19.967c-0.844,0.451-1.809,0.713-2.831,0.713s-1.985-0.26-2.83-0.713
			c-1.821,0.479-3.251,1.613-3.905,4.057h13.473C150.082,21.58,148.654,20.441,146.83,19.967L146.83,19.967z"/>
	</g>
</g>
</svg>
