<?xml version="1.0" encoding="utf-8"?>
<!-- Generator: Adobe Illustrator 15.0.2, SVG Export Plug-In . SVG Version: 6.00 Build 0)  -->
<!DOCTYPE svg PUBLIC "-//W3C//DTD SVG 1.1//EN" "http://www.w3.org/Graphics/SVG/1.1/DTD/svg11.dtd">
<svg version="1.1" id="Calque_1" xmlns="http://www.w3.org/2000/svg" xmlns:xlink="http://www.w3.org/1999/xlink" x="0px" y="0px"
	 width="22px" height="18px" viewBox="0 0 22 18" enable-background="new 0 0 22 18" xml:space="preserve">
<g>
	<path opacity="0.75" fill="#F4F4F4" enable-background="new    " d="M2.234,2.398V16h12.049h3.462V2.398V2.397L2.234,2.398z
		 M16.718,10.968L16.718,10.968l-0.012,4.028H3.033V4.768h13.685V10.968z"/>
	<rect x="5.033" y="9.352" opacity="0.75" fill="#F4F4F4" enable-background="new    " width="1.003" height="1.003"/>
	<rect x="5.033" y="12.352" opacity="0.75" fill="#F4F4F4" enable-background="new    " width="1.003" height="1.004"/>
	<rect x="5.033" y="6.351" opacity="0.75" fill="#F4F4F4" enable-background="new    " width="1.003" height="1.003"/>
	<rect x="8.033" y="6.351" opacity="0.75" fill="#F4F4F4" enable-background="new    " width="1.003" height="1.003"/>
	<rect x="11.033" y="6.351" opacity="0.75" fill="#F4F4F4" enable-background="new    " width="1.003" height="1.003"/>
	<rect x="8.033" y="9.352" opacity="0.75" fill="#F4F4F4" enable-background="new    " width="1.003" height="1.003"/>
	<rect x="11.033" y="9.352" opacity="0.75" fill="#F4F4F4" enable-background="new    " width="1.003" height="1.003"/>
	<rect x="14" y="6.351" opacity="0.75" fill="#F4F4F4" enable-background="new    " width="1.003" height="1.003"/>
	<rect x="14" y="9.352" opacity="0.75" fill="#F4F4F4" enable-background="new    " width="1.003" height="1.003"/>
	<rect x="8.033" y="12.352" opacity="0.75" fill="#F4F4F4" enable-background="new    " width="1.003" height="1.004"/>
	<rect x="11.033" y="12.352" opacity="0.75" fill="#F4F4F4" enable-background="new    " width="1.003" height="1.004"/>
	<rect x="14" y="12.352" opacity="0.75" fill="#F4F4F4" enable-background="new    " width="1.003" height="1.004"/>
</g>
</svg>
