<?xml version="1.0" encoding="utf-8"?>
<!-- Generator: Adobe Illustrator 15.0.2, SVG Export Plug-In . SVG Version: 6.00 Build 0)  -->
<!DOCTYPE svg PUBLIC "-//W3C//DTD SVG 1.1//EN" "http://www.w3.org/Graphics/SVG/1.1/DTD/svg11.dtd">
<svg version="1.1" id="Calque_1" xmlns="http://www.w3.org/2000/svg" xmlns:xlink="http://www.w3.org/1999/xlink" x="0px" y="0px"
	 width="140px" height="140px" viewBox="0 0 140 140" enable-background="new 0 0 140 140" xml:space="preserve">
<g>
	<polygon fill="#EEEBE8" points="102.718,54.66 102.718,31.696 86.257,31.696 86.257,39.355 88.191,41.241 	"/>
	<rect x="61.835" y="85.73" fill="#EEEBE8" width="16.185" height="26.62"/>
	<polygon fill="#EEEBE8" points="86.257,50.851 102.718,66.06 106.907,69.914 106.907,69.79 115,69.79 102.718,58.488 
		86.257,43.279 70.21,27.649 25,69.79 32.903,69.999 70.21,35.226 	"/>
	<polygon fill="#EEEBE8" points="102.718,70.279 86.257,55.07 70.21,39.445 32.903,74.218 32.954,74.219 32.954,81.79 
		32.954,112.351 57.651,112.351 57.651,89.533 57.651,81.962 82.21,81.962 82.21,89.533 82.21,112.351 106.907,112.351 
		106.907,81.584 106.907,74.133 	"/>
</g>
<path fill="#EEEBE8" d="M70,4c36.393,0,66,29.607,66,66s-29.607,66-66,66S4,106.393,4,70S33.607,4,70,4 M70,0C31.34,0,0,31.34,0,70
	s31.34,70,70,70s70-31.34,70-70S108.66,0,70,0L70,0z"/>
</svg>
