<?xml version="1.0" encoding="utf-8"?>
<!-- Generator: Adobe Illustrator 15.0.2, SVG Export Plug-In . SVG Version: 6.00 Build 0)  -->
<!DOCTYPE svg PUBLIC "-//W3C//DTD SVG 1.1//EN" "http://www.w3.org/Graphics/SVG/1.1/DTD/svg11.dtd">
<svg version="1.1" id="Calque_1" xmlns="http://www.w3.org/2000/svg" xmlns:xlink="http://www.w3.org/1999/xlink" x="0px" y="0px"
	 width="140px" height="140px" viewBox="0 0 140 140" enable-background="new 0 0 140 140" xml:space="preserve">
<path fill="#DFFFEF" d="M70,4c36.393,0,66,29.607,66,66s-29.607,66-66,66S4,106.393,4,70S33.607,4,70,4 M70,0C31.34,0,0,31.34,0,70
	s31.34,70,70,70s70-31.34,70-70S108.66,0,70,0L70,0z"/>
<g>
	<g>
		<path fill="#DFFFEF" d="M113.623,37.205c0,0,3.749-4.792-1.126-9.667c-4.864-4.865-9.661-1.115-9.661-1.115"/>
	</g>
	<g>
		<path fill="#DFFFEF" d="M110.318,40.745L73.459,85.526c-0.807,0.806-1.743,1.387-2.811,1.743
			c-1.069,0.355-2.174,0.506-3.317,0.449c-1.144-0.056-2.253-0.313-3.331-0.772s-2.066-1.139-2.965-2.038l-5.847-5.847
			c-0.899-0.899-1.583-1.901-2.052-3.007c-0.468-1.106-0.731-2.23-0.787-3.373c-0.056-1.106,0.094-2.184,0.45-3.234
			c0.355-1.049,0.927-1.967,1.714-2.754l44.776-36.97 M58.139,87.804c1.012,1.012,2.174,1.854,3.486,2.529
			c-1.125,1.499-2.342,3.11-3.654,4.835c-1.312,1.724-2.572,3.387-3.78,4.989c-1.209,1.602-2.314,3.063-3.317,4.385
			c-1.003,1.321-1.766,2.338-2.291,3.05c-0.094,0.131-0.188,0.253-0.281,0.365c-0.093,0.112-0.187,0.216-0.281,0.309
			c-0.693,0.694-1.583,1.256-2.67,1.688c-1.086,0.431-2.501,0.88-4.244,1.349c-0.656,0.169-1.485,0.361-2.488,0.576
			c-1.002,0.216-2.084,0.464-3.247,0.745c-1.162,0.281-2.366,0.604-3.612,0.97s-2.44,0.819-3.584,1.363l11.103-11.103
			c0.281,0.094,0.543,0.168,0.787,0.225c0.243,0.057,0.506,0.094,0.787,0.112c0.6,0.038,1.195-0.052,1.785-0.267
			c0.59-0.216,1.101-0.539,1.532-0.97c0.469-0.469,0.806-0.993,1.012-1.574s0.3-1.181,0.281-1.799
			c-0.056-1.293-0.59-2.446-1.602-3.458c-1.012-1.012-2.165-1.545-3.458-1.602c-1.293-0.094-2.417,0.337-3.373,1.293
			c-0.45,0.449-0.778,0.965-0.984,1.546s-0.3,1.181-0.281,1.799c0.019,0.244,0.052,0.492,0.099,0.745s0.126,0.511,0.238,0.772
			L25,111.779c0.525-1.162,0.975-2.361,1.349-3.598s0.693-2.436,0.956-3.598c0.263-1.161,0.501-2.244,0.717-3.247
			c0.215-1.002,0.417-1.841,0.604-2.515c0.506-1.706,0.975-3.102,1.405-4.188s0.993-1.978,1.687-2.671
			c0.094-0.094,0.197-0.188,0.309-0.28c0.112-0.094,0.234-0.188,0.366-0.281c0.675-0.524,1.677-1.274,3.007-2.249
			s2.806-2.065,4.427-3.274c1.621-1.208,3.293-2.46,5.017-3.752c1.724-1.293,3.326-2.512,4.807-3.654
			c0.356,0.618,0.717,1.185,1.082,1.7s0.811,1.035,1.335,1.56L58.139,87.804z"/>
	</g>
</g>
</svg>
