<?xml version="1.0" encoding="utf-8"?>
<!-- Generator: Adobe Illustrator 15.0.2, SVG Export Plug-In . SVG Version: 6.00 Build 0)  -->
<!DOCTYPE svg PUBLIC "-//W3C//DTD SVG 1.1//EN" "http://www.w3.org/Graphics/SVG/1.1/DTD/svg11.dtd">
<svg version="1.1" id="Calque_1" xmlns="http://www.w3.org/2000/svg" xmlns:xlink="http://www.w3.org/1999/xlink" x="0px" y="0px"
	 width="140px" height="140px" viewBox="0 0 140 140" enable-background="new 0 0 140 140" xml:space="preserve">
<path fill="#542954" d="M70,4c36.393,0,66,29.607,66,66s-29.607,66-66,66S4,106.393,4,70S33.607,4,70,4 M70,0C31.34,0,0,31.34,0,70
	s31.34,70,70,70s70-31.34,70-70S108.66,0,70,0L70,0z"/>
<g>
	<path fill="#542954" d="M106.847,32.683c2.474,2.475,4.426,5.411,5.854,8.809c1.43,3.399,2.192,6.961,2.287,10.683
		c0.098,3.724-0.539,7.448-1.907,11.17c-1.37,3.724-3.604,7.135-6.702,10.233c-4.997,4.995-10.383,8.197-16.161,9.602
		c-5.775,1.405-11.583,1.063-17.419-1.026l-9.657,9.656l-5.513-0.037l-4.178,4.181l0.036,5.512l-2.774,2.775l-5.513-0.036
		l-1.334,1.333l-0.036,5.585l-2.774,2.774c-2.427,0.456-4.697,0.779-6.81,0.973c-0.89,0.071-1.784,0.126-2.684,0.162
		s-1.741,0.023-2.523-0.036c-0.78-0.06-1.477-0.169-2.089-0.325s-1.076-0.391-1.388-0.701c-0.408-0.409-0.594-1.135-0.559-2.18
		c0.037-1.047,0.23-2.247,0.577-3.604c0.348-1.357,0.811-2.805,1.387-4.342c0.577-1.537,1.195-2.997,1.856-4.378
		c0.66-1.382,1.308-2.619,1.946-3.711c0.636-1.093,1.195-1.879,1.675-2.359l26.23-26.231c-0.84-2.858-1.346-5.729-1.513-8.611
		c-0.169-2.882,0.047-5.729,0.649-8.538c0.599-2.811,1.633-5.563,3.098-8.251c1.465-2.69,3.435-5.273,5.909-7.747
		c3.099-3.1,6.461-5.38,10.088-6.846c3.629-1.464,7.249-2.203,10.864-2.216c3.614-0.011,7.072,0.649,10.375,1.981
		C101.447,28.268,104.35,30.185,106.847,32.683z M102.415,67.595c1.945-1.944,3.446-4.167,4.504-6.665
		c1.057-2.498,1.604-5.098,1.639-7.8c0.036-2.702-0.48-5.393-1.549-8.072c-1.068-2.678-2.757-5.169-5.063-7.477
		c-2.282-2.281-4.721-3.914-7.313-4.899c-2.595-0.985-5.189-1.405-7.783-1.26c-2.595,0.143-5.099,0.787-7.511,1.927
		c-2.417,1.141-4.594,2.684-6.541,4.63L102.415,67.595z M65.341,75.055l-2.559-2.558L36.012,99.268l-1.261,4.215l3.819-1.656
		L65.341,75.055z"/>
</g>
</svg>
