<?xml version="1.0" encoding="utf-8"?>
<!-- Generator: Adobe Illustrator 15.0.2, SVG Export Plug-In . SVG Version: 6.00 Build 0)  -->
<!DOCTYPE svg PUBLIC "-//W3C//DTD SVG 1.1//EN" "http://www.w3.org/Graphics/SVG/1.1/DTD/svg11.dtd">
<svg version="1.1" id="Calque_1" xmlns="http://www.w3.org/2000/svg" xmlns:xlink="http://www.w3.org/1999/xlink" x="0px" y="0px"
	 width="80px" height="80px" viewBox="0 0 80 80" enable-background="new 0 0 80 80" xml:space="preserve">
<path fill="#FFFBFF" d="M62.015,15.197c-5.549,0-7.384,3.999-7.384,3.999L42.404,46.224c0,0-1.452-2.979-2.347-4.661
	c-0.898-1.686-1.43-3.421-4.258-3.421c-2.823,0-4.061,2.725-4.061,2.725l-2.479,5.158c0,0-2.082-4.462-4.325-8.963
	c-2.244-4.498-7.901-4.547-12.273-1.594c-4.66,3.143-1.786,9.711-1.786,9.711l7.682,16.848c0,0,1.39,2.776,4.212,2.776
	c3.023,0,4.065-2.776,4.065-2.776l2.626-5.099l2.33,5.198c0,0,0.94,2.677,4.012,2.677c3.295,0,4.162-2.677,4.162-2.677l2.442-5.147
	c0,0,2.609,7.825,6.481,7.825c3.268,0,5.648-5.993,5.648-5.993S70,27.092,70,23.524C69.994,19.957,68.328,15.197,62.015,15.197z
	 M24.947,55.977c0,0-0.442,1.486-2.155,1.486c-1.36,0-2.107-1.486-2.107-1.486l-5.868-12.732c0,0-1.382-2.893,0.641-4.435
	c1.677-1.273,4.18-1.634,5.262,0.201c1.081,1.838,6.114,12.211,6.114,12.211L24.947,55.977z M35.8,57.463
	c-1.683,0-4.013-6.112-4.013-6.112s2.156-5.976,4.013-5.976c1.86,0,4.258,5.976,4.258,5.976S37.487,57.463,35.8,57.463z
	 M51.734,54.346c0,0-1.393,3.117-2.846,3.117c-1.165,0-1.194-0.02-2.657-2.87l-1.363-2.927l13.378-29.53c0,0,1.066-2.63,3.695-2.63
	c3.198,0,3.612,2.454,3.612,3.866C65.553,24.785,51.734,54.346,51.734,54.346z"/>
</svg>
