<?xml version="1.0" encoding="utf-8"?>
<!-- Generator: Adobe Illustrator 15.0.2, SVG Export Plug-In . SVG Version: 6.00 Build 0)  -->
<!DOCTYPE svg PUBLIC "-//W3C//DTD SVG 1.1//EN" "http://www.w3.org/Graphics/SVG/1.1/DTD/svg11.dtd">
<svg version="1.1" id="Calque_1" xmlns="http://www.w3.org/2000/svg" xmlns:xlink="http://www.w3.org/1999/xlink" x="0px" y="0px"
	 width="80px" height="80px" viewBox="0 0 80 80" enable-background="new 0 0 80 80" xml:space="preserve">
<g display="none">
	<path display="inline" d="M41.5,2.333c-13.439,0-24.333,10.895-24.333,24.334c0,4.211,1.07,8.172,2.953,11.627l0,0l21.382,39.373
		L61.955,40H41.5V2.333z"/>
	<path display="inline" d="M67.835,24.334C67.835,10.895,56.939,0,43.5,0v37.667h20.455l0.927-1.706
		C66.766,32.506,67.835,28.545,67.835,24.334z"/>
</g>
<path fill="#FFFBFF" d="M65.693,11.06c-6.477,0-8.615,4.665-8.615,4.665L42.815,47.257c0,0-1.696-3.47-2.745-5.436
	s-1.669-3.99-4.965-3.99s-4.741,3.18-4.741,3.18l-2.891,6.014c0,0-2.429-5.204-5.048-10.454s-9.218-5.308-14.323-1.862
	c-5.436,3.67-2.082,11.333-2.082,11.333l8.962,19.66c0,0,1.619,3.237,4.915,3.237c3.528,0,4.741-3.237,4.741-3.237l3.064-5.956
	l2.718,6.071c0,0,1.099,3.122,4.684,3.122c3.845,0,4.857-3.122,4.857-3.122l2.853-6.014c0,0,3.045,9.136,7.555,9.136
	c3.816,0,6.592-6.996,6.592-6.996s18.04-37.006,18.04-41.169S73.064,11.06,65.693,11.06z M22.442,58.647
	c0,0-0.521,1.734-2.515,1.734c-1.59,0-2.458-1.734-2.458-1.734l-6.852-14.86c0,0-1.612-3.374,0.751-5.175
	c1.954-1.489,4.874-1.908,6.138,0.231c1.264,2.14,7.132,14.253,7.132,14.253L22.442,58.647z M35.105,60.382
	c-1.966,0-4.684-7.141-4.684-7.141s2.515-6.968,4.684-6.968s4.965,6.968,4.965,6.968S37.071,60.382,35.105,60.382z M53.695,56.739
	c0,0-1.619,3.643-3.325,3.643c-1.358,0-1.388-0.028-3.093-3.354l-1.591-3.411l15.612-34.462c0,0,1.243-3.064,4.308-3.064
	c3.729,0,4.221,2.862,4.221,4.51C69.827,22.249,53.695,56.739,53.695,56.739z"/>
</svg>
