<?xml version="1.0" encoding="utf-8"?>
<!-- Generator: Adobe Illustrator 15.0.2, SVG Export Plug-In . SVG Version: 6.00 Build 0)  -->
<!DOCTYPE svg PUBLIC "-//W3C//DTD SVG 1.1//EN" "http://www.w3.org/Graphics/SVG/1.1/DTD/svg11.dtd">
<svg version="1.1" id="Calque_1" xmlns="http://www.w3.org/2000/svg" xmlns:xlink="http://www.w3.org/1999/xlink" x="0px" y="0px"
	 width="92px" height="56px" viewBox="0 0 92 56" enable-background="new 0 0 92 56" xml:space="preserve">
<path fill="#FFFBFF" d="M61.98,10.001c-4.027,0-5.358,2.902-5.358,2.902l-8.873,19.614c0,0-1.054-2.162-1.703-3.382
	c-0.652-1.224-1.038-2.482-3.09-2.482c-2.049,0-2.947,1.977-2.947,1.977l-1.799,3.743c0,0-1.511-3.238-3.139-6.505
	c-1.628-3.264-5.734-3.3-8.907-1.156c-3.382,2.281-1.296,7.048-1.296,7.048l5.575,12.227c0,0,1.008,2.015,3.057,2.015
	c2.194,0,2.95-2.015,2.95-2.015l1.906-3.701l1.691,3.772c0,0,0.682,1.943,2.912,1.943c2.391,0,3.02-1.943,3.02-1.943l1.773-3.735
	c0,0,1.894,5.679,4.703,5.679c2.372,0,4.099-4.35,4.099-4.35s11.222-23.018,11.222-25.608C67.771,13.455,66.563,10.001,61.98,10.001
	z M35.079,39.596c0,0-0.321,1.079-1.564,1.079c-0.987,0-1.529-1.079-1.529-1.079l-4.259-9.241c0,0-1.003-2.099,0.466-3.218
	c1.216-0.924,3.033-1.186,3.818,0.145c0.785,1.334,4.438,8.863,4.438,8.863L35.079,39.596z M42.956,40.675
	c-1.221,0-2.912-4.437-2.912-4.437s1.564-4.336,2.912-4.336c1.35,0,3.09,4.336,3.09,4.336S44.18,40.675,42.956,40.675z
	 M54.52,38.412c0,0-1.011,2.263-2.066,2.263c-0.844,0-0.866-0.015-1.929-2.083l-0.989-2.125l9.71-21.431
	c0,0,0.774-1.908,2.682-1.908c2.32,0,2.622,1.781,2.622,2.805C64.549,16.959,54.52,38.412,54.52,38.412z"/>
</svg>
