<?xml version="1.0" encoding="utf-8"?>
<!-- Generator: Adobe Illustrator 15.0.2, SVG Export Plug-In . SVG Version: 6.00 Build 0)  -->
<!DOCTYPE svg PUBLIC "-//W3C//DTD SVG 1.1//EN" "http://www.w3.org/Graphics/SVG/1.1/DTD/svg11.dtd">
<svg version="1.1" id="Calque_1" xmlns="http://www.w3.org/2000/svg" xmlns:xlink="http://www.w3.org/1999/xlink" x="0px" y="0px"
	 width="205px" height="205px" viewBox="0 0 205 205" enable-background="new 0 0 205 205" xml:space="preserve">
<path fill="#FFFBFF" d="M164.161,33.046c-15.543,0-20.676,11.194-20.676,11.194l-34.229,75.673c0,0-4.069-8.326-6.586-13.045
	c-2.516-4.718-4.005-9.574-11.915-9.574s-11.378,7.632-11.378,7.632l-6.938,14.432c0,0-5.829-12.488-12.114-25.087
	c-6.286-12.6-22.123-12.739-34.374-4.469C12.904,98.611,20.956,117,20.956,117l21.509,47.184c0,0,3.886,7.77,11.796,7.77
	c8.467,0,11.378-7.77,11.378-7.77l7.354-14.293l6.522,14.568c0,0,2.637,7.492,11.24,7.492c9.229,0,11.657-7.492,11.657-7.492
	l6.844-14.434c0,0,7.308,21.926,18.132,21.926c9.158,0,15.818-16.789,15.818-16.789s43.296-88.813,43.296-98.803
	C186.502,46.369,181.854,33.046,164.161,33.046z M60.363,147.252c0,0-1.249,4.162-6.036,4.162c-3.816,0-5.898-4.162-5.898-4.162
	l-16.443-35.664c0,0-3.868-8.096,1.803-12.419c4.688-3.572,11.696-4.579,14.73,0.556c3.033,5.135,17.117,34.205,17.117,34.205
	L60.363,147.252z M90.753,151.414c-4.718,0-11.24-17.139-11.24-17.139s6.036-16.723,11.24-16.723s11.915,16.723,11.915,16.723
	S95.472,151.414,90.753,151.414z M135.367,142.672c0,0-3.886,8.742-7.979,8.742c-3.261,0-3.33-0.068-7.423-8.049l-3.817-8.188
	l37.469-82.705c0,0,2.982-7.354,10.338-7.354c8.95,0,10.13,6.869,10.13,10.822C174.082,59.896,135.367,142.672,135.367,142.672z"/>
</svg>
