<?xml version="1.0" encoding="utf-8"?>
<!-- Generator: Adobe Illustrator 15.0.2, SVG Export Plug-In . SVG Version: 6.00 Build 0)  -->
<!DOCTYPE svg PUBLIC "-//W3C//DTD SVG 1.1//EN" "http://www.w3.org/Graphics/SVG/1.1/DTD/svg11.dtd">
<svg version="1.1" id="Calque_1" xmlns="http://www.w3.org/2000/svg" xmlns:xlink="http://www.w3.org/1999/xlink" x="0px" y="0px"
	 width="48px" height="36px" viewBox="0 0 48 36" enable-background="new 0 0 48 36" xml:space="preserve">
<path fill="#FFFFFF" d="M48,20.5c0,2.2-1.8,4-4,4H4c-2.2,0-4-1.8-4-4v-5c0-2.2,1.8-4,4-4h40c2.2,0,4,1.8,4,4V20.5z"/>
<path fill="#C0C0C0" d="M44,12.5c1.654,0,3,1.346,3,3v5c0,1.654-1.346,3-3,3H4c-1.654,0-3-1.346-3-3v-5c0-1.654,1.346-3,3-3H44
	 M44,11.5H4c-2.2,0-4,1.8-4,4v5c0,2.2,1.8,4,4,4h40c2.2,0,4-1.8,4-4v-5C48,13.3,46.2,11.5,44,11.5L44,11.5z"/>
</svg>
