<?xml version="1.0" encoding="utf-8"?>
<!-- Generator: Adobe Illustrator 15.0.2, SVG Export Plug-In . SVG Version: 6.00 Build 0)  -->
<!DOCTYPE svg PUBLIC "-//W3C//DTD SVG 1.1//EN" "http://www.w3.org/Graphics/SVG/1.1/DTD/svg11.dtd">
<svg version="1.1" id="Calque_1" xmlns="http://www.w3.org/2000/svg" xmlns:xlink="http://www.w3.org/1999/xlink" x="0px" y="0px"
	 width="48px" height="36px" viewBox="0 0 48 36" enable-background="new 0 0 48 36" xml:space="preserve">
<path fill="#FFF5F5" d="M41.492,11.5H6.508C2.913,11.5,0,14.41,0,18s2.913,6.5,6.508,6.5h34.984C45.086,24.5,48,21.59,48,18
	S45.086,11.5,41.492,11.5z"/>
<linearGradient id="SVGID_1_" gradientUnits="userSpaceOnUse" x1="23.9995" y1="11.5" x2="23.9995" y2="24.5005">
	<stop  offset="0" style="stop-color:#C0C0C0"/>
	<stop  offset="1" style="stop-color:#132C49"/>
</linearGradient>
<path fill="url(#SVGID_1_)" d="M41.492,12.5C44.529,12.5,47,14.967,47,18c0,3.033-2.471,5.5-5.508,5.5H6.508
	C3.471,23.5,1,21.033,1,18c0-3.033,2.471-5.5,5.508-5.5H41.492 M41.492,11.5H6.508C2.913,11.5,0,14.41,0,18s2.913,6.5,6.508,6.5
	h34.984C45.086,24.5,48,21.59,48,18S45.086,11.5,41.492,11.5L41.492,11.5z"/>
</svg>
