<?xml version="1.0" encoding="utf-8"?>
<!-- Generator: Adobe Illustrator 15.0.2, SVG Export Plug-In . SVG Version: 6.00 Build 0)  -->
<!DOCTYPE svg PUBLIC "-//W3C//DTD SVG 1.1//EN" "http://www.w3.org/Graphics/SVG/1.1/DTD/svg11.dtd">
<svg version="1.1" id="Calque_1" xmlns="http://www.w3.org/2000/svg" xmlns:xlink="http://www.w3.org/1999/xlink" x="0px" y="0px"
	 width="48px" height="36px" viewBox="0 0 48 36" enable-background="new 0 0 48 36" xml:space="preserve">
<linearGradient id="SVGID_1_" gradientUnits="userSpaceOnUse" x1="23.9995" y1="12.5493" x2="23.9995" y2="23.4757">
	<stop  offset="0" style="stop-color:#FFFFFF"/>
	<stop  offset="1" style="stop-color:#FEE8E8"/>
</linearGradient>
<path fill="url(#SVGID_1_)" d="M41.5,12.5h-35C3.462,12.5,1,14.963,1,18s2.462,5.5,5.5,5.5h35c3.037,0,5.5-2.463,5.5-5.5
	S44.537,12.5,41.5,12.5z"/>
<path fill="#C0B2B2" d="M41.5,13.5c2.481,0,4.5,2.019,4.5,4.5s-2.019,4.5-4.5,4.5h-35C4.019,22.5,2,20.481,2,18s2.019-4.5,4.5-4.5
	H41.5 M41.5,12.5h-35C3.462,12.5,1,14.963,1,18s2.462,5.5,5.5,5.5h35c3.037,0,5.5-2.463,5.5-5.5S44.537,12.5,41.5,12.5L41.5,12.5z"
	/>
</svg>
