<?xml version="1.0" encoding="utf-8"?>
<!-- Generator: Adobe Illustrator 15.0.2, SVG Export Plug-In . SVG Version: 6.00 Build 0)  -->
<!DOCTYPE svg PUBLIC "-//W3C//DTD SVG 1.1//EN" "http://www.w3.org/Graphics/SVG/1.1/DTD/svg11.dtd">
<svg version="1.1" id="Calque_1" xmlns="http://www.w3.org/2000/svg" xmlns:xlink="http://www.w3.org/1999/xlink" x="0px" y="0px"
	 width="48px" height="36px" viewBox="0 0 48 36" enable-background="new 0 0 48 36" xml:space="preserve">
<linearGradient id="SVGID_1_" gradientUnits="userSpaceOnUse" x1="23.9995" y1="9.3516" x2="23.9995" y2="26.3521">
	<stop  offset="0" style="stop-color:#C0C0C0"/>
	<stop  offset="1" style="stop-color:#132C49"/>
</linearGradient>
<path fill="url(#SVGID_1_)" d="M39.5,9.5h-31C3.806,9.5,0,13.306,0,18s3.806,8.5,8.5,8.5h31c4.694,0,8.5-3.806,8.5-8.5
	S44.194,9.5,39.5,9.5z"/>
<path fill="#FFF5F5" d="M39.5,12.5c-0.156,0-0.309,0.011-0.462,0.023c-0.181-0.013-0.361-0.023-0.546-0.023H9.508
	c-0.185,0-0.366,0.011-0.546,0.023C8.809,12.511,8.656,12.5,8.5,12.5C5.462,12.5,3,14.963,3,18s2.462,5.5,5.5,5.5
	c0.156,0,0.309-0.011,0.461-0.023C9.142,23.489,9.323,23.5,9.508,23.5h28.984c0.185,0,0.365-0.011,0.546-0.023
	c0.153,0.013,0.306,0.023,0.462,0.023c3.037,0,5.5-2.463,5.5-5.5S42.537,12.5,39.5,12.5z"/>
</svg>
