<?xml version="1.0" encoding="utf-8"?>
<!-- Generator: Adobe Illustrator 15.0.2, SVG Export Plug-In . SVG Version: 6.00 Build 0)  -->
<!DOCTYPE svg PUBLIC "-//W3C//DTD SVG 1.1//EN" "http://www.w3.org/Graphics/SVG/1.1/DTD/svg11.dtd">
<svg version="1.1" id="Calque_1" xmlns="http://www.w3.org/2000/svg" xmlns:xlink="http://www.w3.org/1999/xlink" x="0px" y="0px"
	 width="48px" height="36px" viewBox="0 0 48 36" enable-background="new 0 0 48 36" xml:space="preserve">
<path fill="#EEEBE8" d="M39.5,12.5c-0.156,0-0.309,0.011-0.462,0.023c-0.181-0.013-0.361-0.023-0.546-0.023H9.508
	c-0.185,0-0.366,0.011-0.546,0.023C8.809,12.511,8.656,12.5,8.5,12.5C5.462,12.5,3,14.963,3,18c0,0.342,0.036,0.676,0.095,1
	c0.471,2.56,2.709,4.5,5.405,4.5c0.156,0,0.309-0.011,0.461-0.023C9.142,23.489,9.323,23.5,9.508,23.5h28.984
	c0.185,0,0.365-0.011,0.546-0.023c0.153,0.013,0.306,0.023,0.462,0.023c2.695,0,4.934-1.94,5.404-4.5C44.965,18.676,45,18.342,45,18
	C45,14.963,42.537,12.5,39.5,12.5z"/>
<path opacity="0.07" fill="#2D2D2D" d="M8.5,14.5c0.156,0,0.309,0.011,0.461,0.023C9.142,14.511,9.323,14.5,9.508,14.5h28.984
	c0.185,0,0.365,0.011,0.546,0.023c0.153-0.013,0.306-0.023,0.462-0.023c2.695,0,4.934,1.941,5.404,4.5
	C44.965,18.676,45,18.342,45,18c0-3.037-2.463-5.5-5.5-5.5c-0.156,0-0.309,0.011-0.462,0.023c-0.181-0.013-0.361-0.023-0.546-0.023
	H9.508c-0.185,0-0.366,0.011-0.546,0.023C8.809,12.511,8.656,12.5,8.5,12.5C5.462,12.5,3,14.963,3,18c0,0.342,0.036,0.676,0.095,1
	C3.566,16.441,5.805,14.5,8.5,14.5z"/>
</svg>
